<?xml version="1.0" standalone="no"?>
<!DOCTYPE svg PUBLIC "-//W3C//DTD SVG 20010904//EN"
 "http://www.w3.org/TR/2001/REC-SVG-20010904/DTD/svg10.dtd">
<svg version="1.0" xmlns="http://www.w3.org/2000/svg"
 width="512.000000pt" height="512.000000pt" viewBox="0 0 512.000000 512.000000"
 preserveAspectRatio="xMidYMid meet">
<metadata>
Created by potrace 1.16, written by Peter Selinger 2001-2019
</metadata>
<g transform="translate(0.000000,512.000000) scale(0.100000,-0.100000)"
fill="#000000" stroke="none">
<path d="M740 4230 l0 -420 871 -2 872 -3 -1239 -1273 c-682 -700 -1240 -1277
-1242 -1283 -2 -5 221 -9 585 -8 l588 0 1328 1367 c731 752 1337 1382 1348
1400 10 18 28 60 40 95 27 80 23 204 -11 290 -31 82 -122 177 -209 220 l-66
32 -1432 3 -1433 2 0 -420z"/>
<path d="M2617 2512 c-731 -752 -1337 -1382 -1348 -1400 -10 -18 -28 -60 -40
-95 -27 -80 -23 -204 11 -290 31 -82 122 -177 209 -220 l66 -32 1433 -3 1432
-2 0 420 0 420 -871 2 -872 3 1239 1273 c682 700 1241 1277 1242 1283 2 5
-221 9 -585 8 l-588 0 -1328 -1367z"/>
</g>
</svg>
