<?xml version="1.0" standalone="no"?>
<!DOCTYPE svg PUBLIC "-//W3C//DTD SVG 20010904//EN"
 "http://www.w3.org/TR/2001/REC-SVG-20010904/DTD/svg10.dtd">
<svg version="1.0" xmlns="http://www.w3.org/2000/svg"
 width="945.000000pt" height="709.000000pt" viewBox="0 0 945.000000 709.000000"
 preserveAspectRatio="xMidYMid meet">
<metadata>
Created by potrace 1.16, written by Peter Selinger 2001-2019
</metadata>
<g transform="translate(0.000000,709.000000) scale(0.100000,-0.100000)"
fill="#000000" stroke="none">
<path d="M0 3545 l0 -3545 4725 0 4725 0 0 3545 0 3545 -4725 0 -4725 0 0
-3545z m2655 429 c252 -65 392 -341 301 -592 -27 -75 -93 -158 -165 -206 -90
-61 -159 -79 -281 -74 -85 3 -105 8 -166 38 -222 109 -316 373 -210 595 56
120 171 215 294 244 60 14 163 12 227 -5z m721 -278 c-15 -50 -13 -56 21 -56
22 0 24 -3 18 -32 -10 -45 -12 -48 -45 -48 -23 0 -30 -6 -39 -33 -6 -18 -12
-50 -14 -72 -2 -36 0 -40 21 -38 24 3 28 -11 12 -51 -9 -24 -14 -26 -75 -26
-61 0 -66 2 -77 26 -10 20 -8 41 9 110 20 83 20 84 1 84 -17 0 -19 5 -13 33
10 43 13 47 36 47 14 0 21 9 25 30 5 25 15 32 63 49 31 11 59 20 63 20 4 1 1
-19 -6 -43z m234 30 c0 -8 -4 -25 -9 -38 -4 -13 -11 -35 -14 -49 l-7 -27 37
19 c46 23 100 24 125 2 25 -22 23 -64 -8 -188 l-26 -105 -54 0 c-62 0 -61 -4
-34 100 27 102 26 120 -4 120 -44 0 -54 -20 -96 -177 l-11 -43 -55 0 c-48 0
-55 2 -50 18 3 9 26 99 52 200 l47 182 54 0 c39 0 53 -4 53 -14z m2090 6 c0
-4 -22 -92 -50 -196 -27 -104 -50 -190 -50 -192 0 -2 -22 -4 -50 -4 -38 0 -50
4 -50 15 0 19 -9 19 -34 0 -11 -8 -41 -15 -67 -15 -40 0 -51 4 -69 28 -19 23
-21 36 -17 84 3 32 14 77 26 100 38 79 142 122 198 83 21 -15 22 -14 33 27 6
24 13 51 16 61 4 13 17 17 60 17 30 0 54 -3 54 -8z m533 -119 c-18 -71 -41
-159 -51 -198 l-18 -70 -53 -3 c-49 -3 -53 -1 -48 17 5 19 4 19 -27 0 -34 -20
-96 -25 -126 -9 -47 25 -46 149 3 222 47 69 133 99 184 63 25 -18 26 -17 44
53 l13 52 57 0 56 0 -34 -127z m-2148 23 c42 -18 55 -42 55 -100 0 -77 2 -76
-126 -76 -92 0 -114 -3 -114 -14 0 -35 26 -44 117 -39 l88 6 -18 -21 c-32 -35
-81 -52 -150 -52 -86 0 -115 12 -133 55 -24 57 3 151 58 202 54 50 153 68 223
39z m329 -7 c21 -17 26 -18 26 -5 0 13 12 16 55 16 30 0 55 -1 55 -2 0 -2 -22
-83 -49 -181 -42 -155 -52 -183 -81 -212 -39 -41 -95 -55 -210 -55 -89 0 -93
4 -60 58 19 31 22 32 89 32 58 0 74 4 95 23 14 12 28 34 32 49 l6 27 -38 -20
c-21 -10 -50 -19 -65 -19 -37 0 -76 34 -83 72 -8 45 16 140 45 176 49 62 133
81 183 41z m621 7 c103 -43 65 -216 -62 -280 -41 -20 -135 -21 -174 -1 -53 28
-65 106 -28 182 45 93 168 139 264 99z m1515 -8 c44 -30 57 -69 41 -128 -28
-105 -98 -160 -205 -160 -31 0 -70 7 -85 15 -27 14 -51 58 -51 94 0 69 57 151
125 182 57 26 134 25 175 -3z m398 6 c30 -20 28 -63 -6 -189 l-27 -100 -53 -3
c-61 -4 -60 -7 -31 105 24 91 21 113 -15 113 -32 0 -46 -26 -77 -137 l-22 -83
-55 0 c-47 0 -54 2 -50 18 2 9 20 77 39 150 l34 132 52 0 c47 0 51 -2 46 -21
-5 -19 -4 -19 32 5 43 30 99 34 133 10z m282 -4 c24 -24 30 -25 30 -5 0 11 12
15 50 15 33 0 50 -4 50 -12 0 -36 -90 -343 -107 -366 -38 -51 -75 -64 -194
-70 -104 -5 -109 -4 -109 15 0 11 9 32 21 47 18 24 27 26 89 26 77 0 105 15
119 66 l9 31 -36 -19 c-53 -26 -88 -23 -123 11 -22 22 -29 39 -29 68 0 85 41
166 100 195 48 24 105 23 130 -2z m-2506 -22 c-3 -18 -21 -85 -38 -148 l-31
-115 -52 -3 c-37 -2 -53 1 -53 9 0 7 16 74 36 151 l37 138 54 0 55 0 -8 -32z
m541 -90 c-18 -68 -35 -135 -39 -150 -6 -26 -10 -28 -61 -28 -30 0 -55 2 -55
5 0 9 72 280 77 288 2 4 28 7 57 7 l52 0 -31 -122z m589 95 c-4 -16 -22 -82
-39 -148 l-32 -120 -51 -3 c-43 -3 -52 0 -52 13 0 17 30 140 56 233 l15 52 55
0 c54 0 54 0 48 -27z"/>
<path d="M2540 3840 c-26 -26 -26 -81 0 -105 47 -42 120 -8 120 56 0 59 -78
91 -120 49z"/>
<path d="M2730 3740 c-10 -39 -12 -40 -54 -40 -40 0 -44 -3 -50 -27 -4 -16 -9
-36 -12 -45 -5 -15 1 -18 40 -18 44 0 45 1 56 40 10 38 13 40 50 40 41 0 51
10 64 63 6 26 5 27 -38 27 -44 0 -45 -1 -56 -40z"/>
<path d="M2409 3655 c-11 -45 -12 -45 -54 -45 -38 0 -44 -3 -49 -27 -4 -16 -9
-36 -12 -45 -5 -15 2 -18 40 -18 l46 0 11 45 c11 45 12 45 55 45 41 0 43 2 53
38 15 53 16 52 -34 52 -45 0 -45 0 -56 -45z"/>
<path d="M2365 3478 c-2 -7 -7 -26 -12 -43 -8 -26 -15 -30 -50 -33 -36 -3 -43
-7 -52 -34 -19 -53 -15 -59 31 -56 40 3 43 5 54 43 10 38 12 40 56 43 42 3 46
5 52 34 11 55 9 58 -34 58 -24 0 -42 -5 -45 -12z"/>
<path d="M2571 3453 c-15 -53 -15 -53 30 -53 38 0 41 -2 35 -22 -20 -73 -22
-68 23 -68 43 0 52 9 65 63 6 26 5 27 -35 27 -44 0 -44 0 -23 73 5 14 -1 17
-40 17 -44 0 -45 -1 -55 -37z"/>
<path d="M6392 3545 c-42 -54 -35 -135 12 -135 46 0 98 98 75 141 -15 28 -63
25 -87 -6z"/>
</g>
</svg>
